# xmcd
#
# Track frame offsets:
#	150
#	18618
#	35152
#	63655
#	82115
#	95806
#	120635
#	151799
#	168255
#	190386
#	210338
#	251742
#	266854
#	292105
#
# Disc length: 4210 seconds
#
# Revision: 3
# Processed by: cddbd v1.5.2PL0 Copyright (c) Steve Scherf et al.
# Submitted via: audiograbber 1.83.01
#
DISCID=d410700e
DTITLE=Compilation "Duo line" - Le meilleur du Blues vol.2
DYEAR=1999
DGENRE=Blues
TTITLE0=Joey Gilmore - Can't Kill Nothin
TTITLE1=Francine Reed - One Momkey
TTITLE2=Jerry McCain - I Ain't Henpecked
TTITLE3=Synethia - What A Mean Feeling
TTITLE4=Legendary Blues Band - Money Talks
TTITLE5=Jerry McCain - I Got The Blues All Over Me
TTITLE6=Sonny Rhodes - Cigarette Blues
TTITLE7=The Shadows With Luther"Houserocker"Johnson - Drivin' Me Crazy
TTITLE8=Jerry McCain - Three Wives
TTITLE9=Drink Small - Little Red Rooster
TTITLE10=Garry B.B.Coleman - The Sky Is Crying
TTITLE11=Sonny Rhodes - Ain't No Blues In Town
TTITLE12=Troy Turner - House Without A Home
TTITLE13=Jimmy Dawkins - Lonely Guitar Man
EXTD=
EXTT0=
EXTT1=
EXTT2=
EXTT3=
EXTT4=
EXTT5=
EXTT6=
EXTT7=
EXTT8=
EXTT9=
EXTT10=
EXTT11=
EXTT12=
EXTT13=
PLAYORDER=
